<?xml version="1.0" encoding="UTF-8" standalone="no"?>
<svg
   xmlns:dc="http://purl.org/dc/elements/1.1/"
   xmlns:cc="http://creativecommons.org/ns#"
   xmlns:rdf="http://www.w3.org/1999/02/22-rdf-syntax-ns#"
   xmlns:svg="http://www.w3.org/2000/svg"
   xmlns="http://www.w3.org/2000/svg"
   xmlns:sodipodi="http://sodipodi.sourceforge.net/DTD/sodipodi-0.dtd"
   xmlns:inkscape="http://www.inkscape.org/namespaces/inkscape"
   width="895.83765"
   stroke-miterlimit="10"
   font-weight="normal"
   height="668.62512"
   font-style="normal"
   font-size="12px"
   id="svg2"
   version="1.1"
   inkscape:version="0.91 r13725"
   sodipodi:docname="logo.svg"
   style="font-style:normal;font-weight:normal;font-size:12px;font-family:Dialog;color-interpolation:auto;fill:#000000;fill-opacity:1;stroke:#000000;stroke-width:1;stroke-linecap:square;stroke-linejoin:miter;stroke-miterlimit:10;stroke-dasharray:none;stroke-dashoffset:0;stroke-opacity:1;color-rendering:auto;image-rendering:auto;shape-rendering:auto;text-rendering:auto">
  <metadata
     id="metadata877">
    <rdf:RDF>
      <cc:Work
         rdf:about="">
        <dc:format>image/svg+xml</dc:format>
        <dc:type
           rdf:resource="http://purl.org/dc/dcmitype/StillImage" />
        <dc:title></dc:title>
      </cc:Work>
    </rdf:RDF>
  </metadata>
  <sodipodi:namedview
     pagecolor="#505050"
     bordercolor="#666666"
     borderopacity="1"
     objecttolerance="10"
     gridtolerance="10"
     guidetolerance="10"
     inkscape:pageopacity="0.52941176"
     inkscape:pageshadow="2"
     inkscape:window-width="1920"
     inkscape:window-height="1136"
     id="namedview875"
     showgrid="false"
     borderlayer="false"
     inkscape:zoom="0.61378413"
     inkscape:cx="477.37616"
     inkscape:cy="283.91777"
     inkscape:window-x="1920"
     inkscape:window-y="32"
     inkscape:window-maximized="0"
     inkscape:current-layer="svg2"
     inkscape:snap-object-midpoints="true"
     fit-margin-top="0"
     fit-margin-left="0"
     fit-margin-right="0"
     fit-margin-bottom="0" />
  <!--Generated by ySVG 2.5-->
  <path
     d="m 376.1876,619.884 21.8901,37.9149 -21.8901,37.9148 -43.7804,0 -21.8902,-37.9148 21.8902,-37.9149 z"
     clip-path="url(#clipPath2-2)"
     transform="matrix(0,1,-1,0,956.68446,-21.094604)"
     id="path359-3"
     inkscape:connector-curvature="0"
     style="font-style:normal;font-weight:normal;font-size:medium;font-family:Dialog;color-interpolation:auto;fill:#ffffff;fill-opacity:1;stroke:#ffffff;stroke-width:1;stroke-linecap:square;stroke-linejoin:miter;stroke-miterlimit:10;stroke-dasharray:none;stroke-dashoffset:0;stroke-opacity:1;color-rendering:auto;image-rendering:auto;shape-rendering:geometricPrecision;text-rendering:geometricPrecision" />
  <defs
     id="genericDefs">
    <clipPath
       id="clipPath11-6"
       clipPathUnits="userSpaceOnUse">
      <path
         inkscape:connector-curvature="0"
         id="path94-2"
         d="m -317.517,-621.0185 1053,0 0,769 -1053,0 0,-769 z" />
    </clipPath>
    <linearGradient
       spreadMethod="reflect"
       id="linearGradient7012"
       y2="701.57922"
       y1="614.01849"
       x2="398.0777"
       gradientUnits="userSpaceOnUse"
       x1="310.517">
      <stop
         id="stop34-9"
         offset="0%"
         stop-color="rgb(255,255,255)"
         stop-opacity="0.902" />
      <stop
         id="stop36-1"
         offset="100%"
         stop-color="rgb(212,212,212)"
         stop-opacity="0.8" />
    </linearGradient>
    <clipPath
       id="clipPath2-2"
       clipPathUnits="userSpaceOnUse">
      <path
         inkscape:connector-curvature="0"
         id="path67-7"
         d="m -15,-15 1053,0 0,769 -1053,0 0,-769 z" />
    </clipPath>
  </defs>
  <path
     d="m 407.36606,68.935965 c -0.6483,2.1119 -2.8858,3.2984 -4.9977,2.6502 -2.1119,-0.6483 -3.2984,-2.8858 -2.6502,-4.9977 0.6483,-2.1119 2.8858,-3.2984 4.9977,-2.6502 2.1119,0.6483 3.2984,2.8858 2.6502,4.9977 z"
     clip-path="url(#clipPath2)"
     id="path609"
     inkscape:connector-curvature="0"
     style="fill:#000000;fill-opacity:0;stroke:none;stroke-linecap:butt;stroke-miterlimit:1.45000005;stroke-dasharray:6, 2;stroke-opacity:0;shape-rendering:geometricPrecision;text-rendering:geometricPrecision" />
  <path
     d="m 264.33706,43.948065 c 0.5167,2.1479 -0.8056,4.3079 -2.9535,4.8246 -2.1479,0.5167 -4.3079,-0.8057 -4.8246,-2.9536 -0.5167,-2.1478 0.8057,-4.3079 2.9536,-4.8245 2.1478,-0.5167 4.3078,0.8056 4.8245,2.9535 z"
     clip-path="url(#clipPath2)"
     id="path627"
     inkscape:connector-curvature="0"
     style="fill:#000000;fill-opacity:0;stroke:none;stroke-linecap:butt;stroke-miterlimit:1.45000005;stroke-dasharray:6, 2;stroke-opacity:0;shape-rendering:geometricPrecision;text-rendering:geometricPrecision" />
  <path
     d="m 332.26886,620.52096 c -0.6483,-2.1119 0.5382,-4.3494 2.6501,-4.9977 2.1119,-0.6482 4.3494,0.5383 4.9977,2.6502 0.6483,2.1118 -0.5383,4.3494 -2.6501,4.9976 -2.1119,0.6483 -4.3495,-0.5382 -4.9977,-2.6501 z"
     clip-path="url(#clipPath2)"
     id="path717"
     inkscape:connector-curvature="0"
     style="fill:#000000;fill-opacity:0;stroke:none;stroke-linecap:butt;stroke-miterlimit:1.45000005;stroke-dasharray:6, 2;stroke-opacity:0;shape-rendering:geometricPrecision;text-rendering:geometricPrecision" />
  <path
     d="m 842.47366,615.48076 c 1.0046,-1.9675 3.414,-2.748 5.3815,-1.7433 1.9675,1.0047 2.7479,3.4141 1.7432,5.3816 -1.0046,1.9674 -3.414,2.7479 -5.3815,1.7432 -1.9675,-1.0046 -2.7479,-3.4141 -1.7432,-5.3815 z"
     clip-path="url(#clipPath2)"
     id="path735"
     inkscape:connector-curvature="0"
     style="fill:#000000;fill-opacity:0;stroke:none;stroke-linecap:butt;stroke-miterlimit:1.45000005;stroke-dasharray:6, 2;stroke-opacity:0;shape-rendering:geometricPrecision;text-rendering:geometricPrecision" />
  <path
     d="m 475.70776,555.41246 c -1.6327,-1.4881 -1.7501,-4.018 -0.262,-5.6508 1.4881,-1.6327 4.018,-1.75 5.6508,-0.2619 1.6328,1.488 1.7501,4.018 0.262,5.6507 -1.4881,1.6328 -4.018,1.7501 -5.6508,0.262 z"
     clip-path="url(#clipPath2)"
     id="path753"
     inkscape:connector-curvature="0"
     style="fill:#000000;fill-opacity:0;stroke:none;stroke-linecap:butt;stroke-miterlimit:1.45000005;stroke-dasharray:6, 2;stroke-opacity:0;shape-rendering:geometricPrecision;text-rendering:geometricPrecision" />
  <path
     d="m 585.07296,484.03856 c 1.0046,-1.9675 3.414,-2.7479 5.3815,-1.7433 1.9675,1.0047 2.7479,3.4141 1.7432,5.3816 -1.0046,1.9674 -3.414,2.7479 -5.3815,1.7432 -1.9675,-1.0046 -2.7479,-3.4141 -1.7432,-5.3815 z"
     clip-path="url(#clipPath2)"
     id="path771"
     inkscape:connector-curvature="0"
     style="fill:#000000;fill-opacity:0;stroke:none;stroke-linecap:butt;stroke-miterlimit:1.45000005;stroke-dasharray:6, 2;stroke-opacity:0;shape-rendering:geometricPrecision;text-rendering:geometricPrecision" />
  <path
     d="m 24.105061,215.75676 c 2.1309,0.5827 3.3859,2.7826 2.8031,4.9135 -0.5827,2.1308 -2.7825,3.3859 -4.9134,2.8031 -2.1309,-0.5827 -3.386,-2.7825 -2.8032,-4.9134 0.5827,-2.1309 2.7826,-3.386 4.9135,-2.8032 z"
     clip-path="url(#clipPath2)"
     id="path807"
     inkscape:connector-curvature="0"
     style="fill:#000000;fill-opacity:0;stroke:none;stroke-linecap:butt;stroke-miterlimit:1.45000005;stroke-dasharray:6, 2;stroke-opacity:0;shape-rendering:geometricPrecision;text-rendering:geometricPrecision" />
  <path
     d="m 525.28566,213.43916 c 1.1622,2.1969 0.3234,4.9198 -1.8735,6.082 -2.1968,1.1621 -4.9198,0.3233 -6.0819,-1.8736 -1.1621,-2.1968 -0.3233,-4.9198 1.8735,-6.0819 2.1969,-1.1621 4.9198,-0.3233 6.0819,1.8735 z"
     clip-path="url(#clipPath2)"
     id="path825"
     inkscape:connector-curvature="0"
     style="fill:#000000;fill-opacity:0;stroke:none;stroke-width:2;stroke-linecap:butt;stroke-miterlimit:1.45000005;stroke-dasharray:12, 4;stroke-opacity:0;shape-rendering:geometricPrecision;text-rendering:geometricPrecision" />
  <path
     d="m 325.30786,347.17986 c 1.1621,-2.1969 3.885,-3.0357 6.0819,-1.8736 2.1968,1.1621 3.0357,3.8851 1.8735,6.0819 -1.1621,2.1969 -3.8851,3.0357 -6.0819,1.8736 -2.1968,-1.1621 -3.0357,-3.8851 -1.8735,-6.0819 z"
     clip-path="url(#clipPath2)"
     id="path853"
     inkscape:connector-curvature="0"
     style="fill:#000000;fill-opacity:0;stroke:none;stroke-width:2;stroke-linecap:butt;stroke-miterlimit:1.45000005;stroke-dasharray:12, 4;stroke-opacity:0;shape-rendering:geometricPrecision;text-rendering:geometricPrecision" />
  <circle
     style="opacity:1;fill:#ffffff;fill-opacity:1;stroke:#ffffff;stroke-width:1;stroke-linecap:square;stroke-miterlimit:4;stroke-dasharray:none;stroke-dashoffset:0;stroke-opacity:1"
     id="path6935"
     r="35.137363"
     cy="35.637363"
     cx="298.88562" />
  <circle
     style="font-style:normal;font-weight:normal;font-size:12px;font-family:Dialog;opacity:1;color-interpolation:auto;fill:#ffffff;fill-opacity:1;stroke:#ffffff;stroke-width:1;stroke-linecap:square;stroke-linejoin:miter;stroke-miterlimit:4;stroke-dasharray:none;stroke-dashoffset:0;stroke-opacity:1;color-rendering:auto;image-rendering:auto;shape-rendering:auto;text-rendering:auto"
     id="path6935-3"
     r="35.137363"
     cy="183.92287"
     cx="35.637363" />
  <circle
     style="font-style:normal;font-weight:normal;font-size:12px;font-family:Dialog;opacity:1;color-interpolation:auto;fill:#ffffff;fill-opacity:1;stroke:#ffffff;stroke-width:1;stroke-linecap:square;stroke-linejoin:miter;stroke-miterlimit:4;stroke-dasharray:none;stroke-dashoffset:0;stroke-opacity:1;color-rendering:auto;image-rendering:auto;shape-rendering:auto;text-rendering:auto"
     id="path6935-6"
     r="35.137363"
     cy="486.92197"
     cx="35.637363" />
  <circle
     style="font-style:normal;font-weight:normal;font-size:12px;font-family:Dialog;opacity:1;color-interpolation:auto;fill:#ffffff;fill-opacity:1;stroke:#ffffff;stroke-width:1;stroke-linecap:square;stroke-linejoin:miter;stroke-miterlimit:4;stroke-dasharray:none;stroke-dashoffset:0;stroke-opacity:1;color-rendering:auto;image-rendering:auto;shape-rendering:auto;text-rendering:auto"
     id="path6935-7"
     r="35.137363"
     cy="632.98773"
     cx="301.10526" />
  <circle
     style="font-style:normal;font-weight:normal;font-size:12px;font-family:Dialog;opacity:1;color-interpolation:auto;fill:#ffffff;fill-opacity:1;stroke:#ffffff;stroke-width:1;stroke-linecap:square;stroke-linejoin:miter;stroke-miterlimit:4;stroke-dasharray:none;stroke-dashoffset:0;stroke-opacity:1;color-rendering:auto;image-rendering:auto;shape-rendering:auto;text-rendering:auto"
     id="path6935-5"
     r="35.137363"
     cy="468.59607"
     cx="554.83228" />
  <circle
     style="font-style:normal;font-weight:normal;font-size:12px;font-family:Dialog;opacity:1;color-interpolation:auto;fill:#ffffff;fill-opacity:1;stroke:#ffffff;stroke-width:1;stroke-linecap:square;stroke-linejoin:miter;stroke-miterlimit:4;stroke-dasharray:none;stroke-dashoffset:0;stroke-opacity:1;color-rendering:auto;image-rendering:auto;shape-rendering:auto;text-rendering:auto"
     id="path6935-35"
     r="35.137363"
     cy="197.80937"
     cx="554.83228" />
  <circle
     style="font-style:normal;font-weight:normal;font-size:12px;font-family:Dialog;opacity:1;color-interpolation:auto;fill:#ffffff;fill-opacity:1;stroke:#ffffff;stroke-width:1;stroke-linecap:square;stroke-linejoin:miter;stroke-miterlimit:4;stroke-dasharray:none;stroke-dashoffset:0;stroke-opacity:1;color-rendering:auto;image-rendering:auto;shape-rendering:auto;text-rendering:auto"
     id="path6935-5-6-0"
     r="23.616917"
     cy="69.349274"
     cx="871.7207" />
  <path
     style="fill:none;fill-rule:evenodd;stroke:#ffffff;stroke-width:4;stroke-linecap:butt;stroke-linejoin:miter;stroke-miterlimit:10;stroke-dasharray:none;stroke-opacity:1"
     d="M 872.19792,68.872085 554.83228,197.80936 298.88562,35.637363 35.637361,183.92286 l 0,302.9991 265.467899,146.06579 253.72702,-164.39169 317.00563,129.77855"
     id="path7092"
     inkscape:connector-curvature="0"
     sodipodi:nodetypes="cccccccc" />
  <circle
     style="font-style:normal;font-weight:normal;font-size:12px;font-family:Dialog;opacity:1;color-interpolation:auto;fill:#ffffff;fill-opacity:1;stroke:#ffffff;stroke-width:1;stroke-linecap:square;stroke-linejoin:miter;stroke-miterlimit:4;stroke-dasharray:none;stroke-dashoffset:0;stroke-opacity:1;color-rendering:auto;image-rendering:auto;shape-rendering:auto;text-rendering:auto"
     id="path6935-5-6"
     r="23.616917"
     cy="597.94257"
     cx="871.7207" />
  <path
     style="fill:none;fill-rule:evenodd;stroke:#ffffff;stroke-width:4;stroke-linecap:butt;stroke-linejoin:miter;stroke-miterlimit:10;stroke-dasharray:16, 16;stroke-dashoffset:0;stroke-opacity:1"
     d="m 554.83228,468.59606 -255.94667,-135.39332 1e-5,-297.565377"
     id="path7094"
     inkscape:connector-curvature="0" />
</svg>
